REM DIRINDEX 1\2\4,1\2\5,1\2\6,1\3\7,1\3\8
REM DIRNAME folder01,folder02,folder03,folder04,folder05,folder06,folder07,folder08
TITLE ""
FILE "001_Pre-Check Quiz.mp3" MP3
  TRACK 01 AUDIO
    TITLE "0:"
    INDEX 01 00:00:00
  TRACK 02 AUDIO
    TITLE "6:cjc128_0001"
    INDEX 01 00:00:27
  TRACK 03 AUDIO
    TITLE "0:"
    INDEX 01 00:04:66
  TRACK 04 AUDIO
    TITLE "6:cjc128_0002"
    INDEX 01 00:06:57
  TRACK 05 AUDIO
    TITLE "0:"
    INDEX 01 00:08:30
  TRACK 06 AUDIO
    TITLE "6:cjc128_0003"
    INDEX 01 00:08:34
  TRACK 07 AUDIO
    TITLE "0:"
    INDEX 01 00:09:28
  TRACK 08 AUDIO
    TITLE "4:cjc128_0004"
    INDEX 01 00:10:12
  TRACK 09 AUDIO
    TITLE "0:"
    INDEX 01 00:12:42
  TRACK 10 AUDIO
    TITLE "5:cjc128_0005"
    INDEX 01 00:15:28
  TRACK 11 AUDIO
    TITLE "0:"
    INDEX 01 00:17:39
  TRACK 12 AUDIO
    TITLE "6:cjc128_0006"
    INDEX 01 00:18:27
  TRACK 13 AUDIO
    TITLE "0:"
    INDEX 01 00:19:24
  TRACK 14 AUDIO
    TITLE "4:cjc128_0007"
    INDEX 01 00:20:00
  TRACK 15 AUDIO
    TITLE "0:"
    INDEX 01 00:23:46
  TRACK 16 AUDIO
    TITLE "5:cjc128_0008"
    INDEX 01 00:26:73
  TRACK 17 AUDIO
    TITLE "0:"
    INDEX 01 00:29:52
  TRACK 18 AUDIO
    TITLE "6:cjc128_0009"
    INDEX 01 00:30:34
  TRACK 19 AUDIO
    TITLE "0:"
    INDEX 01 00:31:39
  TRACK 20 AUDIO
    TITLE "4:cjc128_0010"
    INDEX 01 00:32:25
  TRACK 21 AUDIO
    TITLE "0:"
    INDEX 01 00:35:21
  TRACK 22 AUDIO
    TITLE "5:cjc128_0011"
    INDEX 01 00:38:41
  TRACK 23 AUDIO
    TITLE "0:"
    INDEX 01 00:41:08
  TRACK 24 AUDIO
    TITLE "6:cjc128_0012"
    INDEX 01 00:41:65
  TRACK 25 AUDIO
    TITLE "0:"
    INDEX 01 00:42:68
  TRACK 26 AUDIO
    TITLE "4:cjc128_0013"
    INDEX 01 00:43:56
  TRACK 27 AUDIO
    TITLE "0:"
    INDEX 01 00:46:21
  TRACK 28 AUDIO
    TITLE "5:cjc128_0014"
    INDEX 01 00:48:67
  TRACK 29 AUDIO
    TITLE "0:"
    INDEX 01 00:50:70
  TRACK 30 AUDIO
    TITLE "6:cjc128_0015"
    INDEX 01 00:51:46
  TRACK 31 AUDIO
    TITLE "0:"
    INDEX 01 00:52:55
  TRACK 32 AUDIO
    TITLE "4:cjc128_0016"
    INDEX 01 00:53:23
  TRACK 33 AUDIO
    TITLE "0:"
    INDEX 01 00:56:18
  TRACK 34 AUDIO
    TITLE "5:cjc128_0017"
    INDEX 01 00:58:64
  TRACK 35 AUDIO
    TITLE "0:"
    INDEX 01 01:00:60
  TRACK 36 AUDIO
    TITLE "6:cjc128_0018"
    INDEX 01 01:01:42
  TRACK 37 AUDIO
    TITLE "0:"
    INDEX 01 01:02:48
  TRACK 38 AUDIO
    TITLE "4:cjc128_0019"
    INDEX 01 01:03:41
  TRACK 39 AUDIO
    TITLE "0:"
    INDEX 01 01:07:17
  TRACK 40 AUDIO
    TITLE "5:cjc128_0020"
    INDEX 01 01:10:47
  TRACK 41 AUDIO
    TITLE "0:"
    INDEX 01 01:13:22
  TRACK 42 AUDIO
    TITLE "6:cjc128_0021"
    INDEX 01 01:13:73
  TRACK 43 AUDIO
    TITLE "0:"
    INDEX 01 01:15:01
  TRACK 44 AUDIO
    TITLE "4:cjc128_0022"
    INDEX 01 01:15:52
  TRACK 45 AUDIO
    TITLE "0:"
    INDEX 01 01:19:19
  TRACK 46 AUDIO
    TITLE "5:cjc128_0023"
    INDEX 01 01:22:68
  TRACK 47 AUDIO
    TITLE "0:"
    INDEX 01 01:25:68
  TRACK 48 AUDIO
    TITLE "6:cjc128_0024"
    INDEX 01 01:26:54
  TRACK 49 AUDIO
    TITLE "0:"
    INDEX 01 01:27:46
  TRACK 50 AUDIO
    TITLE "4:cjc128_0025"
    INDEX 01 01:28:31
  TRACK 51 AUDIO
    TITLE "0:"
    INDEX 01 01:31:18
  TRACK 52 AUDIO
    TITLE "5:cjc128_0026"
    INDEX 01 01:34:42
  TRACK 53 AUDIO
    TITLE "0:"
    INDEX 01 01:37:15
  TRACK 54 AUDIO
    TITLE "6:cjc128_0027"
    INDEX 01 01:38:00
  TRACK 55 AUDIO
    TITLE "0:"
    INDEX 01 01:39:06
  TRACK 56 AUDIO
    TITLE "4:cjc128_0028"
    INDEX 01 01:39:66
  TRACK 57 AUDIO
    TITLE "0:"
    INDEX 01 01:42:73
  TRACK 58 AUDIO
    TITLE "5:cjc128_0029"
    INDEX 01 01:46:57
  TRACK 59 AUDIO
    TITLE "0:"
    INDEX 01 01:49:67
  TRACK 60 AUDIO
    TITLE "6:cjc128_0030"
    INDEX 01 01:50:43
  TRACK 61 AUDIO
    TITLE "0:"
    INDEX 01 01:51:42
  TRACK 62 AUDIO
    TITLE "4:cjc128_0031"
    INDEX 01 01:52:26
  TRACK 63 AUDIO
    TITLE "0:"
    INDEX 01 01:56:16
  TRACK 64 AUDIO
    TITLE "5:cjc128_0032"
    INDEX 01 01:59:73
  TRACK 65 AUDIO
    TITLE "0:"
    INDEX 01 02:03:18
